#define tree_width 40
#define tree_height 39
static char tree_bits[] = {
   0x00, 0x00, 0x18, 0x00, 0x00, 0x00, 0x00, 0x18, 0x00, 0x00, 0x00, 0x00,
   0x24, 0x00, 0x00, 0x00, 0x00, 0x24, 0x00, 0x00, 0x00, 0x00, 0x42, 0x00,
   0x00, 0x00, 0x00, 0x42, 0x00, 0x00, 0x00, 0x00, 0x81, 0x00, 0x00, 0x00,
   0x00, 0x81, 0x00, 0x00, 0x00, 0x80, 0x00, 0x01, 0x00, 0x00, 0x80, 0x00,
   0x01, 0x00, 0x00, 0x40, 0x00, 0x02, 0x00, 0x00, 0x40, 0x00, 0x02, 0x00,
   0x00, 0x20, 0x00, 0x04, 0x00, 0x00, 0x20, 0x00, 0x04, 0x00, 0x00, 0x10,
   0x00, 0x08, 0x00, 0x00, 0x10, 0x00, 0x08, 0x00, 0x00, 0x08, 0x00, 0x10,
   0x00, 0x00, 0x08, 0x00, 0x10, 0x00, 0x00, 0x04, 0x00, 0x20, 0x00, 0x00,
   0x04, 0x00, 0x20, 0x00, 0x00, 0x02, 0x00, 0x40, 0x00, 0x00, 0x02, 0x00,
   0x40, 0x00, 0x00, 0x01, 0x00, 0x80, 0x00, 0x00, 0x01, 0x00, 0x80, 0x00,
   0x80, 0x00, 0x00, 0x00, 0x01, 0x80, 0x00, 0x00, 0x00, 0x01, 0x40, 0x00,
   0x00, 0x00, 0x02, 0x40, 0x00, 0x00, 0x00, 0x02, 0x20, 0x00, 0x00, 0x00,
   0x04, 0x20, 0x00, 0x00, 0x00, 0x04, 0x10, 0x00, 0x00, 0x00, 0x08, 0x10,
   0x00, 0x00, 0x00, 0x08, 0x08, 0x00, 0x00, 0x00, 0x10, 0x08, 0x00, 0x00,
   0x00, 0x10, 0x04, 0x00, 0x00, 0x00, 0x20, 0x04, 0x00, 0x00, 0x00, 0x20,
   0x02, 0x00, 0x00, 0x00, 0x40, 0x02, 0x00, 0x00, 0x00, 0x40, 0xff, 0xff,
   0xff, 0xff, 0xff};
