#define treev_hl_width 40
#define treev_hl_height 39
static char treev_hl_bits[] = {
   0x00, 0x00, 0x18, 0x00, 0x00, 0x00, 0x00, 0x18, 0x00, 0x00, 0x00, 0x00,
   0x3c, 0x00, 0x00, 0x00, 0x00, 0x3c, 0x00, 0x00, 0x00, 0x00, 0x66, 0x00,
   0x00, 0x00, 0x00, 0x66, 0x00, 0x00, 0x00, 0x00, 0xc3, 0x00, 0x00, 0x00,
   0x00, 0xc3, 0x00, 0x00, 0x00, 0x80, 0x81, 0x01, 0x00, 0x00, 0x80, 0x81,
   0x01, 0x00, 0x00, 0xc0, 0x00, 0x03, 0x00, 0x00, 0xc0, 0x00, 0x03, 0x00,
   0x00, 0x60, 0x00, 0x06, 0x00, 0x00, 0x60, 0x00, 0x06, 0x00, 0x00, 0x30,
   0x00, 0x0c, 0x00, 0x00, 0x30, 0x00, 0x0c, 0x00, 0x00, 0x18, 0x00, 0x18,
   0x00, 0x00, 0x18, 0x00, 0x18, 0x00, 0x00, 0x0c, 0x00, 0x30, 0x00, 0x00,
   0x0c, 0x00, 0x30, 0x00, 0x00, 0x06, 0x00, 0x60, 0x00, 0x00, 0x06, 0x00,
   0x60, 0x00, 0x00, 0x03, 0x00, 0xc0, 0x00, 0x00, 0x03, 0x00, 0xc0, 0x00,
   0x80, 0x01, 0x00, 0x80, 0x01, 0x80, 0x01, 0x00, 0x80, 0x01, 0xc0, 0x00,
   0x00, 0x00, 0x03, 0xc0, 0x00, 0x00, 0x00, 0x03, 0x60, 0x00, 0x00, 0x00,
   0x06, 0x60, 0x00, 0x00, 0x00, 0x06, 0x30, 0x00, 0x00, 0x00, 0x0c, 0x30,
   0x00, 0x00, 0x00, 0x0c, 0x18, 0x00, 0x00, 0x00, 0x18, 0x18, 0x00, 0x00,
   0x00, 0x18, 0x0c, 0x00, 0x00, 0x00, 0x30, 0x0c, 0x00, 0x00, 0x00, 0x30,
   0x06, 0x00, 0x00, 0x00, 0x60, 0xff, 0xff, 0xff, 0xff, 0xff, 0xff, 0xff,
   0xff, 0xff, 0xff};
