#define treeh_hl_width 39
#define treeh_hl_height 40
static char treeh_hl_bits[] = {
   0x00, 0x00, 0x00, 0x00, 0x60, 0x00, 0x00, 0x00, 0x00, 0x70, 0x00, 0x00,
   0x00, 0x00, 0x7c, 0x00, 0x00, 0x00, 0x00, 0x6f, 0x00, 0x00, 0x00, 0xc0,
   0x63, 0x00, 0x00, 0x00, 0xf0, 0x60, 0x00, 0x00, 0x00, 0x3c, 0x60, 0x00,
   0x00, 0x00, 0x0f, 0x60, 0x00, 0x00, 0xc0, 0x03, 0x60, 0x00, 0x00, 0xf0,
   0x00, 0x60, 0x00, 0x00, 0x3c, 0x00, 0x60, 0x00, 0x00, 0x0f, 0x00, 0x60,
   0x00, 0xc0, 0x03, 0x00, 0x60, 0x00, 0xf0, 0x00, 0x00, 0x60, 0x00, 0x3c,
   0x00, 0x00, 0x60, 0x00, 0x0f, 0x00, 0x00, 0x60, 0xc0, 0x03, 0x00, 0x00,
   0x60, 0xf0, 0x00, 0x00, 0x00, 0x60, 0x3c, 0x00, 0x00, 0x00, 0x60, 0x0f,
   0x00, 0x00, 0x00, 0x60, 0x0f, 0x00, 0x00, 0x00, 0x60, 0x3c, 0x00, 0x00,
   0x00, 0x60, 0xf0, 0x00, 0x00, 0x00, 0x60, 0xc0, 0x03, 0x00, 0x00, 0x60,
   0x00, 0x0f, 0x00, 0x00, 0x60, 0x00, 0x3c, 0x00, 0x00, 0x60, 0x00, 0xf0,
   0x00, 0x00, 0x60, 0x00, 0xc0, 0x03, 0x00, 0x60, 0x00, 0x00, 0x0f, 0x00,
   0x60, 0x00, 0x00, 0x3c, 0x00, 0x60, 0x00, 0x00, 0xf0, 0x00, 0x60, 0x00,
   0x00, 0xc0, 0x03, 0x60, 0x00, 0x00, 0x00, 0x0f, 0x60, 0x00, 0x00, 0x00,
   0x3c, 0x60, 0x00, 0x00, 0x00, 0xf0, 0x60, 0x00, 0x00, 0x00, 0xc0, 0x63,
   0x00, 0x00, 0x00, 0x00, 0x6f, 0x00, 0x00, 0x00, 0x00, 0x7c, 0x00, 0x00,
   0x00, 0x00, 0x70, 0x00, 0x00, 0x00, 0x00, 0x60};
