#define treeh_width 39
#define treeh_height 40
static char treeh_bits[] = {
   0x00, 0x00, 0x00, 0x00, 0x40, 0x00, 0x00, 0x00, 0x00, 0x70, 0x00, 0x00,
   0x00, 0x00, 0x4c, 0x00, 0x00, 0x00, 0x00, 0x43, 0x00, 0x00, 0x00, 0xc0,
   0x40, 0x00, 0x00, 0x00, 0x30, 0x40, 0x00, 0x00, 0x00, 0x0c, 0x40, 0x00,
   0x00, 0x00, 0x03, 0x40, 0x00, 0x00, 0xc0, 0x00, 0x40, 0x00, 0x00, 0x30,
   0x00, 0x40, 0x00, 0x00, 0x0c, 0x00, 0x40, 0x00, 0x00, 0x03, 0x00, 0x40,
   0x00, 0xc0, 0x00, 0x00, 0x40, 0x00, 0x30, 0x00, 0x00, 0x40, 0x00, 0x0c,
   0x00, 0x00, 0x40, 0x00, 0x03, 0x00, 0x00, 0x40, 0xc0, 0x00, 0x00, 0x00,
   0x40, 0x30, 0x00, 0x00, 0x00, 0x40, 0x0c, 0x00, 0x00, 0x00, 0x40, 0x03,
   0x00, 0x00, 0x00, 0x40, 0x03, 0x00, 0x00, 0x00, 0x40, 0x0c, 0x00, 0x00,
   0x00, 0x40, 0x30, 0x00, 0x00, 0x00, 0x40, 0xc0, 0x00, 0x00, 0x00, 0x40,
   0x00, 0x03, 0x00, 0x00, 0x40, 0x00, 0x0c, 0x00, 0x00, 0x40, 0x00, 0x30,
   0x00, 0x00, 0x40, 0x00, 0xc0, 0x00, 0x00, 0x40, 0x00, 0x00, 0x03, 0x00,
   0x40, 0x00, 0x00, 0x0c, 0x00, 0x40, 0x00, 0x00, 0x30, 0x00, 0x40, 0x00,
   0x00, 0xc0, 0x00, 0x40, 0x00, 0x00, 0x00, 0x03, 0x40, 0x00, 0x00, 0x00,
   0x0c, 0x40, 0x00, 0x00, 0x00, 0x30, 0x40, 0x00, 0x00, 0x00, 0xc0, 0x40,
   0x00, 0x00, 0x00, 0x00, 0x43, 0x00, 0x00, 0x00, 0x00, 0x4c, 0x00, 0x00,
   0x00, 0x00, 0x70, 0x00, 0x00, 0x00, 0x00, 0x40};
